# Blender 3.6.1
# www.blender.org
o Torus.001
v 1.415869 1.122735 -2.860675
v 1.400742 1.263515 -2.912349
v 1.284208 1.355312 -2.939023
v 1.134530 1.344351 -2.925070
v 1.039388 1.237053 -2.878665
v 1.054515 1.096272 -2.826991
v 1.171049 1.004476 -2.800318
v 1.320727 1.015437 -2.814270
v 1.305867 0.995096 -3.273262
v 1.296296 1.142323 -3.304101
v 1.193172 1.249680 -3.280474
v 1.056905 1.254280 -3.216221
v 0.967318 1.153428 -3.148981
v 0.976890 1.006201 -3.118142
v 1.080013 0.898844 -3.141769
v 1.216280 0.894244 -3.206022
v 1.046396 0.937361 -3.630979
v 1.049928 1.087503 -3.643754
v 0.978438 1.201899 -3.576516
v 0.873804 1.213537 -3.468652
v 0.797320 1.115601 -3.383348
v 0.793788 0.965459 -3.370573
v 0.865278 0.851063 -3.437811
v 0.969912 0.839424 -3.545675
v 0.676959 0.958318 -3.879367
v 0.699146 1.107402 -3.879599
v 0.672696 1.219243 -3.782079
v 0.613103 1.228326 -3.643932
v 0.555275 1.129332 -3.546085
v 0.533087 0.980248 -3.545853
v 0.559537 0.868407 -3.643373
v 0.619131 0.859323 -3.781519
v 0.253797 1.054778 -3.980612
v 0.297354 1.198990 -3.975730
v 0.322494 1.299071 -3.865867
v 0.314490 1.296395 -3.715378
v 0.278031 1.192529 -3.612417
v 0.234474 1.048317 -3.617298
v 0.209335 0.948235 -3.727162
v 0.217339 0.950912 -3.877651
v -0.158665 1.212054 -3.919299
v -0.094279 1.348325 -3.917514
v -0.018854 1.429232 -3.815125
v 0.023427 1.407381 -3.672111
v 0.007797 1.295573 -3.572247
v -0.056588 1.159302 -3.574031
v -0.132013 1.078395 -3.676420
v -0.174295 1.100246 -3.819434
v -0.497634 1.406204 -3.704762
v -0.416131 1.532670 -3.713811
v -0.299381 1.589907 -3.637578
v -0.215774 1.544387 -3.520719
v -0.214286 1.422774 -3.431688
v -0.295789 1.296308 -3.422639
v -0.412540 1.239071 -3.498873
v -0.496147 1.284592 -3.615732
v -0.711506 1.607670 -3.369664
v -0.619202 1.723962 -3.395635
v -0.476378 1.756637 -3.360255
v -0.366697 1.686555 -3.284250
v -0.354409 1.554769 -3.212141
v -0.446712 1.438477 -3.186170
v -0.589537 1.405801 -3.221550
v -0.699218 1.475883 -3.297556
v -0.767720 1.785779 -2.965020
v -0.672577 1.893077 -3.011425
v -0.522900 1.904038 -3.025377
v -0.406365 1.812242 -2.998704
v -0.391239 1.671461 -2.947029
v -0.486381 1.564164 -2.900625
v -0.636059 1.553202 -2.886672
v -0.752593 1.644999 -2.913346
v -0.657718 1.913418 -2.552433
v -0.568131 2.014270 -2.619673
v -0.431864 2.009670 -2.683926
v -0.328740 1.902313 -2.707553
v -0.319169 1.755087 -2.676714
v -0.408756 1.654235 -2.609474
v -0.545023 1.658834 -2.545221
v -0.648146 1.766192 -2.521594
v -0.398247 1.971153 -2.194715
v -0.321763 2.069090 -2.280020
v -0.217129 2.057451 -2.387884
v -0.145639 1.943055 -2.455122
v -0.149171 1.792913 -2.442347
v -0.225655 1.694977 -2.357043
v -0.330289 1.706615 -2.249179
v -0.401779 1.821012 -2.181941
v -0.028809 1.950196 -1.946327
v 0.029019 2.049191 -2.044175
v 0.088612 2.040107 -2.182321
v 0.115062 1.928266 -2.279841
v 0.092875 1.779183 -2.279610
v 0.035047 1.680188 -2.181762
v -0.024547 1.689271 -2.043616
v -0.050997 1.801113 -1.946096
v 0.394352 1.853737 -1.845083
v 0.430811 1.957603 -1.948043
v 0.438815 1.960279 -2.098533
v 0.413675 1.860198 -2.208396
v 0.370118 1.715985 -2.213277
v 0.333660 1.612119 -2.110317
v 0.325656 1.609443 -1.959828
v 0.350795 1.709524 -1.849964
v 0.806814 1.696460 -1.906396
v 0.822444 1.808268 -2.006260
v 0.780163 1.830119 -2.149275
v 0.704738 1.749212 -2.251663
v 0.640352 1.612942 -2.253448
v 0.624722 1.501133 -2.153584
v 0.667004 1.479283 -2.010570
v 0.742429 1.560190 -1.908181
v 1.145783 1.502310 -2.120932
v 1.144295 1.623923 -2.209962
v 1.060689 1.669443 -2.326821
v 0.943938 1.612206 -2.403055
v 0.862435 1.485740 -2.394006
v 0.863923 1.364128 -2.304976
v 0.947529 1.318607 -2.188116
v 1.064280 1.375844 -2.111883
v 1.359655 1.300845 -2.456030
v 1.347367 1.432631 -2.528138
v 1.237686 1.502713 -2.604144
v 1.094862 1.470038 -2.639524
v 1.002558 1.353746 -2.613553
v 1.014846 1.221959 -2.541445
v 1.124527 1.151877 -2.465439
v 1.267351 1.184553 -2.430059
vn 0.9656 0.0083 -0.2600
vn 0.6247 0.6833 -0.3779
vn -0.0954 0.9579 -0.2709
vn -0.7493 0.6622 -0.0051
vn -0.9656 -0.0083 0.2600
vn -0.6247 -0.6833 0.3779
vn 0.0954 -0.9579 0.2709
vn 0.7493 -0.6622 0.0051
vn 0.8128 -0.0683 -0.5785
vn 0.5606 0.6511 -0.5117
vn -0.0312 0.9901 -0.1371
vn -0.5965 0.7389 0.3134
vn -0.8128 0.0683 0.5785
vn -0.5606 -0.6511 0.5117
vn 0.0312 -0.9901 0.1371
vn 0.5965 -0.7389 -0.3134
vn 0.5527 -0.0835 -0.8292
vn 0.4514 0.6447 -0.6169
vn 0.0780 0.9964 -0.0319
vn -0.3365 0.7541 0.5641
vn -0.5527 0.0835 0.8292
vn -0.4514 -0.6447 0.6169
vn -0.0780 -0.9964 0.0319
vn 0.3365 -0.7541 -0.5641
vn 0.2250 -0.0350 -0.9737
vn 0.3137 0.6651 -0.6777
vn 0.2156 0.9761 0.0288
vn -0.0087 0.7055 0.7086
vn -0.2250 0.0350 0.9737
vn -0.3137 -0.6651 0.6777
vn -0.2156 -0.9761 -0.0288
vn 0.0087 -0.7055 -0.7086
vn -0.1205 0.0699 -0.9902
vn 0.1686 0.7091 -0.6846
vn 0.3607 0.9320 0.0358
vn 0.3368 0.6006 0.7251
vn 0.1205 -0.0699 0.9902
vn -0.1686 -0.7091 0.6846
vn -0.3607 -0.9320 -0.0358
vn -0.3368 -0.6006 -0.7251
vn -0.4313 0.2152 -0.8762
vn 0.0382 0.7702 -0.6367
vn 0.4912 0.8710 -0.0121
vn 0.6475 0.4553 0.6111
vn 0.4313 -0.2152 0.8762
vn -0.0382 -0.7702 0.6367
vn -0.4912 -0.8710 0.0121
vn -0.6475 -0.4553 -0.6111
vn -0.6599 0.3788 -0.6489
vn -0.0578 0.8389 -0.5413
vn 0.5872 0.8023 -0.1076
vn 0.8761 0.2917 0.3838
vn 0.6599 -0.3788 0.6489
vn 0.0578 -0.8389 0.5413
vn -0.5872 -0.8023 0.1076
vn -0.8761 -0.2917 -0.3838
vn -0.7715 0.5358 -0.3430
vn -0.1047 0.9048 -0.4128
vn 0.6341 0.7364 -0.2360
vn 0.9878 0.1347 0.0779
vn 0.7715 -0.5358 0.3430
vn 0.1047 -0.9048 0.4128
vn -0.6341 -0.7364 0.2360
vn -0.9878 -0.1347 -0.0779
vt 0.500000 0.500000
vt 0.562500 0.500000
vt 0.562500 0.625000
vt 0.500000 0.625000
vt 0.562500 0.750000
vt 0.500000 0.750000
vt 0.562500 0.875000
vt 0.500000 0.875000
vt 0.562500 1.000000
vt 0.500000 1.000000
vt 0.500000 0.000000
vt 0.562500 0.000000
vt 0.562500 0.125000
vt 0.500000 0.125000
vt 0.562500 0.250000
vt 0.500000 0.250000
vt 0.562500 0.375000
vt 0.500000 0.375000
vt 0.625000 0.500000
vt 0.625000 0.625000
vt 0.625000 0.750000
vt 0.625000 0.875000
vt 0.625000 1.000000
vt 0.625000 0.000000
vt 0.625000 0.125000
vt 0.625000 0.250000
vt 0.625000 0.375000
vt 0.687500 0.500000
vt 0.687500 0.625000
vt 0.687500 0.750000
vt 0.687500 0.875000
vt 0.687500 1.000000
vt 0.687500 0.000000
vt 0.687500 0.125000
vt 0.687500 0.250000
vt 0.687500 0.375000
vt 0.750000 0.500000
vt 0.750000 0.625000
vt 0.750000 0.750000
vt 0.750000 0.875000
vt 0.750000 1.000000
vt 0.750000 0.000000
vt 0.750000 0.125000
vt 0.750000 0.250000
vt 0.750000 0.375000
vt 0.812500 0.500000
vt 0.812500 0.625000
vt 0.812500 0.750000
vt 0.812500 0.875000
vt 0.812500 1.000000
vt 0.812500 0.000000
vt 0.812500 0.125000
vt 0.812500 0.250000
vt 0.812500 0.375000
vt 0.875000 0.500000
vt 0.875000 0.625000
vt 0.875000 0.750000
vt 0.875000 0.875000
vt 0.875000 1.000000
vt 0.875000 0.000000
vt 0.875000 0.125000
vt 0.875000 0.250000
vt 0.875000 0.375000
vt 0.937500 0.500000
vt 0.937500 0.625000
vt 0.937500 0.750000
vt 0.937500 0.875000
vt 0.937500 1.000000
vt 0.937500 0.000000
vt 0.937500 0.125000
vt 0.937500 0.250000
vt 0.937500 0.375000
vt 1.000000 0.500000
vt 1.000000 0.625000
vt 1.000000 0.750000
vt 1.000000 0.875000
vt 1.000000 1.000000
vt 1.000000 0.000000
vt 1.000000 0.125000
vt 1.000000 0.250000
vt 1.000000 0.375000
vt 0.000000 0.500000
vt 0.062500 0.500000
vt 0.062500 0.625000
vt 0.000000 0.625000
vt 0.062500 0.750000
vt 0.000000 0.750000
vt 0.062500 0.875000
vt 0.000000 0.875000
vt 0.062500 1.000000
vt 0.000000 1.000000
vt 0.000000 0.000000
vt 0.062500 0.000000
vt 0.062500 0.125000
vt 0.000000 0.125000
vt 0.062500 0.250000
vt 0.000000 0.250000
vt 0.062500 0.375000
vt 0.000000 0.375000
vt 0.125000 0.500000
vt 0.125000 0.625000
vt 0.125000 0.750000
vt 0.125000 0.875000
vt 0.125000 1.000000
vt 0.125000 0.000000
vt 0.125000 0.125000
vt 0.125000 0.250000
vt 0.125000 0.375000
vt 0.187500 0.500000
vt 0.187500 0.625000
vt 0.187500 0.750000
vt 0.187500 0.875000
vt 0.187500 1.000000
vt 0.187500 0.000000
vt 0.187500 0.125000
vt 0.187500 0.250000
vt 0.187500 0.375000
vt 0.250000 0.500000
vt 0.250000 0.625000
vt 0.250000 0.750000
vt 0.250000 0.875000
vt 0.250000 1.000000
vt 0.250000 0.000000
vt 0.250000 0.125000
vt 0.250000 0.250000
vt 0.250000 0.375000
vt 0.312500 0.500000
vt 0.312500 0.625000
vt 0.312500 0.750000
vt 0.312500 0.875000
vt 0.312500 1.000000
vt 0.312500 0.000000
vt 0.312500 0.125000
vt 0.312500 0.250000
vt 0.312500 0.375000
vt 0.375000 0.500000
vt 0.375000 0.625000
vt 0.375000 0.750000
vt 0.375000 0.875000
vt 0.375000 1.000000
vt 0.375000 0.000000
vt 0.375000 0.125000
vt 0.375000 0.250000
vt 0.375000 0.375000
vt 0.437500 0.500000
vt 0.437500 0.625000
vt 0.437500 0.750000
vt 0.437500 0.875000
vt 0.437500 1.000000
vt 0.437500 0.000000
vt 0.437500 0.125000
vt 0.437500 0.250000
vt 0.437500 0.375000
s 0
f 1/1/1 9/2/1 10/3/1 2/4/1
f 2/4/2 10/3/2 11/5/2 3/6/2
f 3/6/3 11/5/3 12/7/3 4/8/3
f 4/8/4 12/7/4 13/9/4 5/10/4
f 5/11/5 13/12/5 14/13/5 6/14/5
f 6/14/6 14/13/6 15/15/6 7/16/6
f 7/16/7 15/15/7 16/17/7 8/18/7
f 8/18/8 16/17/8 9/2/8 1/1/8
f 9/2/9 17/19/9 18/20/9 10/3/9
f 10/3/10 18/20/10 19/21/10 11/5/10
f 11/5/11 19/21/11 20/22/11 12/7/11
f 12/7/12 20/22/12 21/23/12 13/9/12
f 13/12/13 21/24/13 22/25/13 14/13/13
f 14/13/14 22/25/14 23/26/14 15/15/14
f 15/15/15 23/26/15 24/27/15 16/17/15
f 16/17/16 24/27/16 17/19/16 9/2/16
f 17/19/17 25/28/17 26/29/17 18/20/17
f 18/20/18 26/29/18 27/30/18 19/21/18
f 19/21/19 27/30/19 28/31/19 20/22/19
f 20/22/20 28/31/20 29/32/20 21/23/20
f 21/24/21 29/33/21 30/34/21 22/25/21
f 22/25/22 30/34/22 31/35/22 23/26/22
f 23/26/23 31/35/23 32/36/23 24/27/23
f 24/27/24 32/36/24 25/28/24 17/19/24
f 25/28/25 33/37/25 34/38/25 26/29/25
f 26/29/26 34/38/26 35/39/26 27/30/26
f 27/30/27 35/39/27 36/40/27 28/31/27
f 28/31/28 36/40/28 37/41/28 29/32/28
f 29/33/29 37/42/29 38/43/29 30/34/29
f 30/34/30 38/43/30 39/44/30 31/35/30
f 31/35/31 39/44/31 40/45/31 32/36/31
f 32/36/32 40/45/32 33/37/32 25/28/32
f 33/37/33 41/46/33 42/47/33 34/38/33
f 34/38/34 42/47/34 43/48/34 35/39/34
f 35/39/35 43/48/35 44/49/35 36/40/35
f 36/40/36 44/49/36 45/50/36 37/41/36
f 37/42/37 45/51/37 46/52/37 38/43/37
f 38/43/38 46/52/38 47/53/38 39/44/38
f 39/44/39 47/53/39 48/54/39 40/45/39
f 40/45/40 48/54/40 41/46/40 33/37/40
f 41/46/41 49/55/41 50/56/41 42/47/41
f 42/47/42 50/56/42 51/57/42 43/48/42
f 43/48/43 51/57/43 52/58/43 44/49/43
f 44/49/44 52/58/44 53/59/44 45/50/44
f 45/51/45 53/60/45 54/61/45 46/52/45
f 46/52/46 54/61/46 55/62/46 47/53/46
f 47/53/47 55/62/47 56/63/47 48/54/47
f 48/54/48 56/63/48 49/55/48 41/46/48
f 49/55/49 57/64/49 58/65/49 50/56/49
f 50/56/50 58/65/50 59/66/50 51/57/50
f 51/57/51 59/66/51 60/67/51 52/58/51
f 52/58/52 60/67/52 61/68/52 53/59/52
f 53/60/53 61/69/53 62/70/53 54/61/53
f 54/61/54 62/70/54 63/71/54 55/62/54
f 55/62/55 63/71/55 64/72/55 56/63/55
f 56/63/56 64/72/56 57/64/56 49/55/56
f 57/64/57 65/73/57 66/74/57 58/65/57
f 58/65/58 66/74/58 67/75/58 59/66/58
f 59/66/59 67/75/59 68/76/59 60/67/59
f 60/67/60 68/76/60 69/77/60 61/68/60
f 61/69/61 69/78/61 70/79/61 62/70/61
f 62/70/62 70/79/62 71/80/62 63/71/62
f 63/71/63 71/80/63 72/81/63 64/72/63
f 64/72/64 72/81/64 65/73/64 57/64/64
f 65/82/4 73/83/4 74/84/4 66/85/4
f 66/85/3 74/84/3 75/86/3 67/87/3
f 67/87/2 75/86/2 76/88/2 68/89/2
f 68/89/1 76/88/1 77/90/1 69/91/1
f 69/92/8 77/93/8 78/94/8 70/95/8
f 70/95/7 78/94/7 79/96/7 71/97/7
f 71/97/6 79/96/6 80/98/6 72/99/6
f 72/99/5 80/98/5 73/83/5 65/82/5
f 73/83/12 81/100/12 82/101/12 74/84/12
f 74/84/11 82/101/11 83/102/11 75/86/11
f 75/86/10 83/102/10 84/103/10 76/88/10
f 76/88/9 84/103/9 85/104/9 77/90/9
f 77/93/16 85/105/16 86/106/16 78/94/16
f 78/94/15 86/106/15 87/107/15 79/96/15
f 79/96/14 87/107/14 88/108/14 80/98/14
f 80/98/13 88/108/13 81/100/13 73/83/13
f 81/100/20 89/109/20 90/110/20 82/101/20
f 82/101/19 90/110/19 91/111/19 83/102/19
f 83/102/18 91/111/18 92/112/18 84/103/18
f 84/103/17 92/112/17 93/113/17 85/104/17
f 85/105/24 93/114/24 94/115/24 86/106/24
f 86/106/23 94/115/23 95/116/23 87/107/23
f 87/107/22 95/116/22 96/117/22 88/108/22
f 88/108/21 96/117/21 89/109/21 81/100/21
f 89/109/28 97/118/28 98/119/28 90/110/28
f 90/110/27 98/119/27 99/120/27 91/111/27
f 91/111/26 99/120/26 100/121/26 92/112/26
f 92/112/25 100/121/25 101/122/25 93/113/25
f 93/114/32 101/123/32 102/124/32 94/115/32
f 94/115/31 102/124/31 103/125/31 95/116/31
f 95/116/30 103/125/30 104/126/30 96/117/30
f 96/117/29 104/126/29 97/118/29 89/109/29
f 97/118/36 105/127/36 106/128/36 98/119/36
f 98/119/35 106/128/35 107/129/35 99/120/35
f 99/120/34 107/129/34 108/130/34 100/121/34
f 100/121/33 108/130/33 109/131/33 101/122/33
f 101/123/40 109/132/40 110/133/40 102/124/40
f 102/124/39 110/133/39 111/134/39 103/125/39
f 103/125/38 111/134/38 112/135/38 104/126/38
f 104/126/37 112/135/37 105/127/37 97/118/37
f 105/127/44 113/136/44 114/137/44 106/128/44
f 106/128/43 114/137/43 115/138/43 107/129/43
f 107/129/42 115/138/42 116/139/42 108/130/42
f 108/130/41 116/139/41 117/140/41 109/131/41
f 109/132/48 117/141/48 118/142/48 110/133/48
f 110/133/47 118/142/47 119/143/47 111/134/47
f 111/134/46 119/143/46 120/144/46 112/135/46
f 112/135/45 120/144/45 113/136/45 105/127/45
f 113/136/52 121/145/52 122/146/52 114/137/52
f 114/137/51 122/146/51 123/147/51 115/138/51
f 115/138/50 123/147/50 124/148/50 116/139/50
f 116/139/49 124/148/49 125/149/49 117/140/49
f 117/141/56 125/150/56 126/151/56 118/142/56
f 118/142/55 126/151/55 127/152/55 119/143/55
f 119/143/54 127/152/54 128/153/54 120/144/54
f 120/144/53 128/153/53 121/145/53 113/136/53
f 121/145/60 1/1/60 2/4/60 122/146/60
f 122/146/59 2/4/59 3/6/59 123/147/59
f 123/147/58 3/6/58 4/8/58 124/148/58
f 124/148/57 4/8/57 5/10/57 125/149/57
f 125/150/64 5/11/64 6/14/64 126/151/64
f 126/151/63 6/14/63 7/16/63 127/152/63
f 127/152/62 7/16/62 8/18/62 128/153/62
f 128/153/61 8/18/61 1/1/61 121/145/61
